<svg width="40" height="40" viewBox="0 0 40 40" fill="none" xmlns="http://www.w3.org/2000/svg">
<path d="M5.75 22.375C5.75 26.3864 7.34352 30.2335 10.18 33.07C13.0165 35.9065 16.8636 37.5 20.875 37.5C24.8864 37.5 28.7335 35.9065 31.57 33.07C34.4065 30.2335 36 26.3864 36 22.375H5.75Z" stroke="#E94222" stroke-width="2" stroke-linecap="round" stroke-linejoin="round"/>
<path d="M8.875 17.25C9.0965 15.6337 9.89591 14.1522 11.1253 13.0798C12.3548 12.0073 13.931 11.4164 15.5625 11.4164C17.194 11.4164 18.7702 12.0073 19.9996 13.0798C21.2291 14.1522 22.0285 15.6337 22.25 17.25" stroke="#E94222" stroke-width="2" stroke-linecap="round" stroke-linejoin="round"/>
<path d="M17.874 10.6251C18.7815 9.5986 19.8978 8.77763 21.148 8.21716C22.3983 7.65668 23.7539 7.36961 25.124 7.37514C26.415 7.37503 27.6931 7.63131 28.8843 8.1291C30.0754 8.62688 31.1559 9.35625 32.0629 10.2749C32.9699 11.1936 33.6855 12.2832 34.168 13.4806C34.6506 14.678 34.8906 15.9593 34.874 17.2502" stroke="#E94222" stroke-width="2" stroke-linecap="round" stroke-linejoin="round"/>
<path d="M21.125 13.6248C22.1002 12.7953 23.3449 12.3507 24.625 12.3748C26.0623 12.3744 27.4426 12.9367 28.4705 13.9413C29.4985 14.9458 30.0923 16.3129 30.125 17.7498" stroke="#E94222" stroke-width="2" stroke-linecap="round" stroke-linejoin="round"/>
<path d="M13.501 11L5.87598 3.75" stroke="#E94222" stroke-width="2" stroke-linecap="round" stroke-linejoin="round"/>
<path d="M9.375 14.75L5 10.625" stroke="#E94222" stroke-width="2" stroke-linecap="round" stroke-linejoin="round"/>
</svg>
