<svg width="40" height="40" viewBox="0 0 40 40" fill="none" xmlns="http://www.w3.org/2000/svg">
<path d="M34.5 26.986C34.5509 25.1602 34.209 23.3448 33.4973 21.6627C32.7857 19.9805 31.7208 18.4709 30.375 17.236" stroke="#E94222" stroke-width="1.5" stroke-linecap="round" stroke-linejoin="round"/>
<path d="M6.25 26.986C6.25 19.111 12.625 13.361 20.375 13.361C22.254 13.3555 24.1182 13.6944 25.875 14.361" stroke="#E94222" stroke-width="1.5" stroke-linecap="round" stroke-linejoin="round"/>
<path d="M2.5 31.986H38.25" stroke="#E94222" stroke-width="1.5" stroke-linecap="round" stroke-linejoin="round"/>
<path d="M30.8747 15.486L30.3747 17.236L30.1247 18.361C29.4935 20.9669 28.1522 23.3467 26.2497 25.236L25.7497 25.611C25.4334 25.9598 25.0475 26.2386 24.6169 26.4293C24.1863 26.6201 23.7206 26.7187 23.2497 26.7187C22.7788 26.7187 22.3131 26.6201 21.8825 26.4293C21.4519 26.2386 21.0661 25.9598 20.7497 25.611L19.7497 24.611L18.7497 23.611C18.4171 23.2851 18.1529 22.8961 17.9725 22.4669C17.7921 22.0376 17.6992 21.5766 17.6992 21.111C17.6992 20.6453 17.7921 20.1844 17.9725 19.7551C18.1529 19.3259 18.4171 18.9368 18.7497 18.611L19.2497 18.236C21.0455 16.3417 23.3434 14.9977 25.8747 14.361H25.9997L28.8747 13.611L30.8747 15.486Z" stroke="#E94222" stroke-width="1.5" stroke-linecap="round" stroke-linejoin="round"/>
<path d="M36.375 14.486C35.9018 14.8504 35.3433 15.0876 34.7526 15.1751C34.1618 15.2626 33.5585 15.1976 33 14.9861L30.75 15.486L29.125 13.7361L29.625 11.4861C29.3663 10.9662 29.2639 10.3823 29.3305 9.80541C29.3971 9.22851 29.6297 8.68335 30 8.23604C31.25 6.98604 33.75 7.36106 35.5 9.11106C37.25 10.8611 37.625 13.236 36.375 14.486Z" stroke="#E94222" stroke-width="1.5" stroke-linecap="round" stroke-linejoin="round"/>
</svg>
