<svg width="40" height="40" viewBox="0 0 40 40" fill="none" xmlns="http://www.w3.org/2000/svg">
<path d="M34.6942 13.3718C36.6957 11.3703 36.6957 8.12539 34.6943 6.12395C32.6928 4.12252 29.4478 4.12249 27.4464 6.12393L6.37461 27.1957C4.37317 29.1971 4.3732 32.4422 6.37463 34.4436C8.37607 36.445 11.621 36.445 13.6225 34.4436L34.6942 13.3718Z" stroke="#E94222" stroke-width="2" stroke-linecap="round" stroke-linejoin="round"/>
<path d="M27.249 6.37745L6.30099 27.3255C5.29298 26.3175 4.72665 24.9503 4.72665 23.5248C4.72665 22.0992 5.29292 20.7321 6.30093 19.7241L19.5592 6.46582C20.0539 5.94753 20.6473 5.53343 21.3044 5.24778C21.9615 4.96213 22.6691 4.8107 23.3855 4.80247C24.102 4.79423 24.8128 4.92932 25.4763 5.1998C26.1398 5.47027 26.7425 5.87068 27.249 6.37745Z" stroke="#E94222" stroke-width="2" stroke-linecap="round" stroke-linejoin="round"/>
<path d="M13.6925 34.6006L34.6405 13.6526C35.6485 14.6606 36.2148 16.0277 36.2148 17.4533C36.2148 18.8788 35.6485 20.2459 34.6405 21.2539L21.3822 34.5122C20.3742 35.5202 19.0071 36.0865 17.5816 36.0865C16.156 36.0865 14.7889 35.5202 13.7809 34.5122L13.6925 34.6006Z" stroke="#E94222" stroke-width="2" stroke-linecap="round" stroke-linejoin="round"/>
<path d="M9.78516 29.5172C12.2852 27.0172 14.0352 28.7672 16.5352 26.3922C19.0352 24.0172 17.1602 22.1422 19.6602 19.6422C22.1602 17.1422 23.9102 18.8922 26.4102 16.5172C28.9102 14.1422 27.0352 12.2672 29.5352 9.76724" stroke="#E94222" stroke-width="2" stroke-linecap="round" stroke-linejoin="round"/>
</svg>
