<svg width="40" height="40" viewBox="0 0 40 40" fill="none" xmlns="http://www.w3.org/2000/svg">
<path d="M36.375 21.75C35.8958 25.9992 33.8328 29.9117 30.5974 32.7076C27.3619 35.5035 23.1916 36.9775 18.9178 36.8355C14.644 36.6936 10.5808 34.9462 7.53792 31.9418C4.49508 28.9374 2.69624 24.8967 2.5 20.625C2.52121 19.7452 2.60477 18.868 2.75002 18C2.82839 19.2532 3.33317 20.4418 4.18049 21.3683C5.0278 22.2949 6.16661 22.9037 7.40776 23.0935C8.64891 23.2833 9.91763 23.0427 11.0032 22.4118C12.0887 21.7808 12.9257 20.7974 13.375 19.625C13.514 19.3522 13.5988 19.0551 13.625 18.75C14.0121 17.3687 14.8717 16.1671 16.054 15.3547C17.2363 14.5423 18.6662 14.1707 20.0945 14.3046C21.5227 14.4385 22.8587 15.0694 23.8694 16.0874C24.8801 17.1054 25.5014 18.4459 25.625 19.875V21C25.7809 22.3365 26.4323 23.5659 27.4506 24.4454C28.4689 25.3248 29.7801 25.7904 31.125 25.75C32.3203 25.762 33.4855 25.3752 34.4363 24.6507C35.3871 23.9263 36.0692 22.9056 36.375 21.75Z" stroke="#E94222" stroke-width="1.5" stroke-linecap="round" stroke-linejoin="round"/>
<path d="M25.625 20.6249V20.9999C25.5604 22.5807 24.8867 24.0751 23.745 25.1702C22.6032 26.2654 21.082 26.8763 19.5 26.8749C17.8424 26.8749 16.2527 26.2165 15.0806 25.0444C13.9085 23.8722 13.25 22.2826 13.25 20.6249C13.25 20.2499 13.375 19.9999 13.375 19.6249C13.514 19.3521 13.5988 19.055 13.625 18.7499C14.0121 17.3687 14.8717 16.167 16.054 15.3546C17.2363 14.5422 18.6662 14.1706 20.0945 14.3045C21.5227 14.4384 22.8587 15.0693 23.8694 16.0873C24.88 17.1053 25.5014 18.4458 25.625 19.8749V20.6249Z" stroke="#E94222" stroke-width="1.5" stroke-linecap="round" stroke-linejoin="round"/>
<path d="M36.375 20.625V21.75C36.0692 22.9056 35.3871 23.9263 34.4362 24.6507C33.4854 25.3751 32.3203 25.7619 31.125 25.75C29.7801 25.7903 28.4689 25.3248 27.4506 24.4454C26.4323 23.5659 25.7808 22.3365 25.625 21V19.875C25.5014 18.4458 24.88 17.1054 23.8693 16.0874C22.8587 15.0694 21.5227 14.4385 20.0945 14.3046C18.6662 14.1707 17.2363 14.5423 16.054 15.3547C14.8717 16.1671 14.0121 17.3687 13.625 18.75C13.5 19 13.5 19.375 13.375 19.625C12.9257 20.7974 12.0887 21.7808 11.0031 22.4117C9.91761 23.0427 8.64889 23.2833 7.40775 23.0935C6.1666 22.9036 5.02779 22.2949 4.18047 21.3683C3.33316 20.4417 2.82838 19.2531 2.75 18C2.88507 17.0682 3.09406 16.1486 3.375 15.25C4.54036 11.8989 6.71776 8.99251 9.60635 6.93243C12.4949 4.87236 15.9521 3.76035 19.5 3.75002C23.5902 3.7438 27.5434 5.22333 30.6245 7.91349C33.7055 10.6037 35.7046 14.3213 36.25 18.375C36.3537 19.1203 36.3955 19.8729 36.375 20.625Z" stroke="#E94222" stroke-width="1.5" stroke-linecap="round" stroke-linejoin="round"/>
<path d="M8.625 17.7501L10.125 16.0002" stroke="#E94222" stroke-width="1.5" stroke-linecap="round" stroke-linejoin="round"/>
<path d="M14.625 12.375L12.875 11" stroke="#E94222" stroke-width="1.5" stroke-linecap="round" stroke-linejoin="round"/>
<path d="M28.375 12.75L26.625 11.375" stroke="#E94222" stroke-width="1.5" stroke-linecap="round" stroke-linejoin="round"/>
<path d="M19.625 10.125L21 8.375" stroke="#E94222" stroke-width="1.5" stroke-linecap="round" stroke-linejoin="round"/>
<path d="M30.375 19L31.875 17.25" stroke="#E94222" stroke-width="1.5" stroke-linecap="round" stroke-linejoin="round"/>
</svg>
