<svg width="40" height="40" viewBox="0 0 40 40" fill="none" xmlns="http://www.w3.org/2000/svg">
<path d="M9.49998 11.7033H6.12497C5.67153 11.7373 5.21593 11.6793 4.78547 11.5327C4.35502 11.3862 3.95865 11.1542 3.62008 10.8507C3.28152 10.5471 3.00773 10.1783 2.81526 9.76633C2.62279 9.35437 2.51558 8.90776 2.50001 8.45332C2.49775 7.56679 2.83198 6.71244 3.43522 6.0628C4.03846 5.41316 4.86572 5.01665 5.74998 4.95333L25.75 2.57834C26.459 2.45446 27.186 2.4777 27.8857 2.64662C28.5854 2.81555 29.2428 3.12654 29.8172 3.56028C30.3916 3.99402 30.8707 4.54124 31.2247 5.16795C31.5787 5.79465 31.8001 6.48745 31.875 7.20332C31.9125 8.14117 31.6713 9.06916 31.1819 9.87006C30.6924 10.671 29.9767 11.3089 29.125 11.7033" stroke="#E94222" stroke-width="2" stroke-linecap="round" stroke-linejoin="round"/>
<path d="M31.875 7.0784C32.6847 6.55121 33.6538 6.32499 34.6133 6.43921C35.5727 6.55343 36.4617 7.00084 37.125 7.7034" stroke="#E94222" stroke-width="2" stroke-linecap="round" stroke-linejoin="round"/>
<path d="M18.8752 37.8283C18.5361 37.8288 18.2005 37.7602 17.8887 37.6268C17.577 37.4935 17.2956 37.2981 17.0618 37.0525C16.8279 36.807 16.6464 36.5164 16.5284 36.1985C16.4104 35.8806 16.3582 35.542 16.3752 35.2034L17.5002 21.4534H20.3752L21.5002 35.2034C21.5002 35.8996 21.2236 36.5672 20.7314 37.0595C20.2391 37.5518 19.5714 37.8283 18.8752 37.8283Z" stroke="#E94222" stroke-width="2" stroke-linecap="round" stroke-linejoin="round"/>
<path d="M23.875 16.4534C23.6849 17.6594 23.0704 18.758 22.1423 19.5512C21.2142 20.3445 20.0334 20.7804 18.8125 20.7804C17.5915 20.7804 16.4107 20.3445 15.4826 19.5512C14.5545 18.758 13.9401 17.6594 13.75 16.4534" stroke="#E94222" stroke-width="2" stroke-linecap="round" stroke-linejoin="round"/>
<path d="M13.75 9.70331V16.4533" stroke="#E94222" stroke-width="2" stroke-linecap="round" stroke-linejoin="round"/>
<path d="M18.875 9.70331V16.2033" stroke="#E94222" stroke-width="2" stroke-linecap="round" stroke-linejoin="round"/>
<path d="M23.875 9.70331V16.4533" stroke="#E94222" stroke-width="2" stroke-linecap="round" stroke-linejoin="round"/>
</svg>
