<svg width="40" height="40" viewBox="0 0 40 40" fill="none" xmlns="http://www.w3.org/2000/svg">
<path d="M37.625 23.625H2.5V37.025H37.625V23.625Z" stroke="#E94222" stroke-width="2" stroke-linecap="round" stroke-linejoin="round"/>
<path d="M33.001 18.375H7.12598V23.6375H33.001V18.375Z" stroke="#E94222" stroke-width="2" stroke-linecap="round" stroke-linejoin="round"/>
<path d="M14.25 26.125C14.1534 27.5951 13.4838 28.9687 12.3852 29.9504C11.2866 30.9322 9.84672 31.4436 8.375 31.375C6.90328 31.4436 5.46337 30.9322 4.36478 29.9504C3.26619 28.9687 2.59662 27.5951 2.5 26.125" stroke="#E94222" stroke-width="2" stroke-linecap="round" stroke-linejoin="round"/>
<path d="M26 26.125C25.9034 27.5951 25.2338 28.9687 24.1352 29.9504C23.0366 30.9322 21.5967 31.4436 20.125 31.375C18.6533 31.4436 17.2134 30.9322 16.1148 29.9504C15.0162 28.9687 14.3466 27.5951 14.25 26.125" stroke="#E94222" stroke-width="2" stroke-linecap="round" stroke-linejoin="round"/>
<path d="M37.624 26.125C37.5274 27.5951 36.8578 28.9687 35.7592 29.9504C34.6607 30.9322 33.2207 31.4436 31.749 31.375C30.2985 31.4104 28.8904 30.884 27.8189 29.9057C26.7473 28.9273 26.0953 27.5728 25.999 26.125" stroke="#E94222" stroke-width="2" stroke-linecap="round" stroke-linejoin="round"/>
<path d="M20.124 13.9998V17.1248" stroke="#E94222" stroke-width="2" stroke-linecap="round" stroke-linejoin="round"/>
<path d="M22.1249 12.375C25.6249 9.37499 20.1249 2.5 20.1249 2.5C20.1249 2.5 14.6249 9.37499 17.9999 12.375C18.5812 12.8524 19.3101 13.1133 20.0624 13.1133C20.8146 13.1133 21.5435 12.8524 22.1249 12.375Z" stroke="#E94222" stroke-width="2" stroke-linecap="round" stroke-linejoin="round"/>
</svg>
