<svg width="40" height="40" viewBox="0 0 40 40" fill="none" xmlns="http://www.w3.org/2000/svg">
<path d="M6.12793 28.75H34.3779V30.625C34.3779 31.9511 33.8511 33.2229 32.9134 34.1605C31.9758 35.0982 30.704 35.625 29.3779 35.625H11.1279C9.80185 35.625 8.53007 35.0982 7.59239 34.1605C6.65471 33.2229 6.12793 31.9511 6.12793 30.625V28.75Z" stroke="#E94222" stroke-width="1.5" stroke-linecap="round" stroke-linejoin="round"/>
<path d="M31.0032 21.1253H34.2532C34.7561 21.1085 35.2572 21.1931 35.7267 21.3741C36.1962 21.555 36.6245 21.8285 36.9861 22.1784C37.3477 22.5283 37.6351 22.9474 37.8313 23.4108C38.0275 23.8741 38.1285 24.3721 38.1282 24.8753C38.1282 25.903 37.72 26.8886 36.9933 27.6153C36.2666 28.342 35.281 28.7503 34.2532 28.7503H6.25321C5.75006 28.7506 5.25202 28.6496 4.78871 28.4534C4.32539 28.2571 3.90628 27.9697 3.55637 27.6081C3.20647 27.2465 2.9329 26.8183 2.75197 26.3488C2.57103 25.8793 2.48644 25.3782 2.50321 24.8753C2.48575 24.3781 2.57083 23.8827 2.75311 23.4198C2.93539 22.957 3.21098 22.5366 3.56274 22.1848C3.9145 21.833 4.33488 21.5574 4.79775 21.3752C5.26062 21.1929 5.75605 21.1078 6.25321 21.1253H17.2532" stroke="#E94222" stroke-width="1.5" stroke-linecap="round" stroke-linejoin="round"/>
<path d="M38.1283 18.625C38.1189 19.2844 37.8494 19.9134 37.3783 20.375C37.1592 20.6204 36.8889 20.8147 36.5865 20.9442C36.2842 21.0738 35.9571 21.1355 35.6283 21.125H29.1283L24.8783 26L20.6283 21.125H4.87832C4.55563 21.1255 4.23621 21.0601 3.9396 20.933C3.64299 20.806 3.37538 20.6197 3.15312 20.3858C2.93087 20.1518 2.75864 19.8751 2.64691 19.5723C2.53519 19.2696 2.48631 18.9472 2.50329 18.625C2.48631 18.3028 2.53519 17.9804 2.64691 17.6777C2.75864 17.375 2.93087 17.0982 3.15312 16.8642C3.37538 16.6303 3.64299 16.4441 3.9396 16.317C4.23621 16.1899 4.55563 16.1246 4.87832 16.125H35.6283C36.2913 16.125 36.9273 16.3884 37.3961 16.8572C37.8649 17.3261 38.1283 17.962 38.1283 18.625Z" stroke="#E94222" stroke-width="1.5" stroke-linecap="round" stroke-linejoin="round"/>
<path d="M16.8779 5H23.7529C26.604 5 29.3383 6.13258 31.3543 8.14859C33.3703 10.1646 34.5029 12.8989 34.5029 15.75H6.12793C6.12793 12.8989 7.26049 10.1646 9.2765 8.14859C11.2925 6.13258 14.0268 5 16.8779 5Z" stroke="#E94222" stroke-width="1.5" stroke-linecap="round" stroke-linejoin="round"/>
<path d="M13.2539 10.625L14.7539 12.25" stroke="#E94222" stroke-width="1.5" stroke-linecap="round" stroke-linejoin="round"/>
<path d="M26.7529 10L28.3779 11.75" stroke="#E94222" stroke-width="1.5" stroke-linecap="round" stroke-linejoin="round"/>
<path d="M19.2529 10.7502L21.0029 9.12515" stroke="#E94222" stroke-width="1.5" stroke-linecap="round" stroke-linejoin="round"/>
</svg>
