<svg width="40" height="40" viewBox="0 0 40 40" fill="none" xmlns="http://www.w3.org/2000/svg">
<path d="M19.5 36.5C28.8888 36.5 36.5 28.8888 36.5 19.5C36.5 10.1112 28.8888 2.5 19.5 2.5C10.1111 2.5 2.5 10.1112 2.5 19.5C2.5 28.8888 10.1111 36.5 19.5 36.5Z" stroke="#E94222" stroke-width="2" stroke-linecap="round" stroke-linejoin="round"/>
<path d="M25.374 29.6248C26.7547 29.6248 27.874 28.5055 27.874 27.1248C27.874 25.7441 26.7547 24.6248 25.374 24.6248C23.9933 24.6248 22.874 25.7441 22.874 27.1248C22.874 28.5055 23.9933 29.6248 25.374 29.6248Z" fill="#E94222"/>
<path d="M10.876 24.6248C12.2567 24.6248 13.376 23.5055 13.376 22.1248C13.376 20.7441 12.2567 19.6248 10.876 19.6248C9.49526 19.6248 8.37598 20.7441 8.37598 22.1248C8.37598 23.5055 9.49526 24.6248 10.876 24.6248Z" fill="#E94222"/>
<path d="M22.126 12.5C23.5067 12.5 24.626 11.3807 24.626 10C24.626 8.61929 23.5067 7.5 22.126 7.5C20.7453 7.5 19.626 8.61929 19.626 10C19.626 11.3807 20.7453 12.5 22.126 12.5Z" fill="#E94222"/>
<path d="M22.125 21C22.9534 21 23.625 20.3284 23.625 19.5C23.625 18.6716 22.9534 18 22.125 18C21.2966 18 20.625 18.6716 20.625 19.5C20.625 20.3284 21.2966 21 22.125 21Z" fill="#E94222"/>
<path d="M28.875 18.375C29.7034 18.375 30.375 17.7034 30.375 16.875C30.375 16.0465 29.7034 15.375 28.875 15.375C28.0466 15.375 27.375 16.0465 27.375 16.875C27.375 17.7034 28.0466 18.375 28.875 18.375Z" fill="#E94222"/>
<path d="M16.249 29.6252C17.0775 29.6252 17.7491 28.9536 17.7491 28.1252C17.7491 27.2967 17.0775 26.6252 16.249 26.6252C15.4206 26.6252 14.749 27.2967 14.749 28.1252C14.749 28.9536 15.4206 29.6252 16.249 29.6252Z" fill="#E94222"/>
<path d="M13.124 15.5C13.9525 15.5 14.6241 14.8284 14.6241 14C14.6241 13.1716 13.9525 12.5 13.124 12.5C12.2956 12.5 11.624 13.1716 11.624 14C11.624 14.8284 12.2956 15.5 13.124 15.5Z" fill="#E94222"/>
</svg>
