<svg width="40" height="40" viewBox="0 0 40 40" fill="none" xmlns="http://www.w3.org/2000/svg">
<path d="M12.625 31.9024C15.1103 31.9024 17.125 29.8876 17.125 27.4024C17.125 24.9171 15.1103 22.9023 12.625 22.9023C10.1397 22.9023 8.125 24.9171 8.125 27.4024C8.125 29.8876 10.1397 31.9024 12.625 31.9024Z" stroke="#E94222" stroke-width="1.5" stroke-linecap="round" stroke-linejoin="round"/>
<path d="M25.9628 26.794L13.3232 14.1544L9.55792 17.9198L22.1974 30.5593L25.9628 26.794Z" stroke="#E94222" stroke-width="1.5" stroke-linecap="round" stroke-linejoin="round"/>
<path d="M26.6365 20.039L19.9189 13.3215L16.1536 17.0868L22.8711 23.8043L26.6365 20.039Z" stroke="#E94222" stroke-width="1.5" stroke-linecap="round" stroke-linejoin="round"/>
<path d="M3.75 36.1523L9.5 30.5273" stroke="#E94222" stroke-width="1.5" stroke-linecap="round" stroke-linejoin="round"/>
<path d="M23.25 16.7774L27.75 12.2774" stroke="#E94222" stroke-width="1.5" stroke-linecap="round" stroke-linejoin="round"/>
<path d="M27.7498 12.2773C27.3384 11.9101 27.0469 11.4277 26.9132 10.8928C26.7794 10.3578 26.8096 9.79495 26.9998 9.27735L29.1248 4.27735C29.2863 4.10107 29.4847 3.96261 29.7058 3.87181C29.927 3.781 30.1654 3.74009 30.4042 3.75203C30.6429 3.76396 30.8761 3.82844 31.0871 3.94085C31.2981 4.05326 31.4817 4.21085 31.6248 4.40236L35.6248 8.40237C35.8084 8.55486 35.9561 8.74591 36.0575 8.96195C36.1589 9.17799 36.2115 9.41372 36.2115 9.65237C36.2115 9.89102 36.1589 10.1267 36.0575 10.3428C35.9561 10.5588 35.8084 10.7499 35.6248 10.9024L30.7498 13.0273C30.2322 13.2175 29.6693 13.2477 29.1344 13.114C28.5994 12.9802 28.117 12.6887 27.7498 12.2773Z" stroke="#E94222" stroke-width="1.5" stroke-linecap="round" stroke-linejoin="round"/>
</svg>
