<svg width="40" height="40" viewBox="0 0 40 40" fill="none" xmlns="http://www.w3.org/2000/svg">
<path d="M18.625 32.2499C15.6885 32.2252 12.8249 31.3319 10.3952 29.6825C7.96556 28.0331 6.07846 25.7013 4.97174 22.9812C3.86503 20.2611 3.58823 17.2742 4.17623 14.3971C4.76422 11.5199 6.1907 8.8811 8.27589 6.81328C10.3611 4.74546 13.0117 3.34111 15.8937 2.77722C18.7757 2.21332 21.7601 2.51509 24.4709 3.64453C27.1817 4.77396 29.4975 6.68052 31.1265 9.12392C32.7556 11.5673 33.6249 14.4382 33.625 17.3749" stroke="#E94222" stroke-width="1.5" stroke-linecap="round" stroke-linejoin="round"/>
<path d="M18.625 28.0001C16.5236 28.0001 14.4693 27.377 12.7221 26.2095C10.9748 25.042 9.61296 23.3826 8.80878 21.4411C8.0046 19.4996 7.79419 17.3633 8.20416 15.3023C8.61413 13.2412 9.62607 11.348 11.112 9.86208C12.5979 8.37615 14.4911 7.36422 16.5522 6.95425C18.6132 6.54428 20.7496 6.7547 22.691 7.55888C24.6325 8.36306 26.2919 9.72488 27.4594 11.4721C28.6269 13.2194 29.25 15.2737 29.25 17.3751" stroke="#E94222" stroke-width="1.5" stroke-linecap="round" stroke-linejoin="round"/>
<path d="M18.625 2.5V32.25" stroke="#E94222" stroke-width="1.5" stroke-linecap="round" stroke-linejoin="round"/>
<path d="M3.75 17.375H33.625" stroke="#E94222" stroke-width="1.5" stroke-linecap="round" stroke-linejoin="round"/>
<path d="M23.125 22H37.5C36.625 29.875 31.625 34.875 23.25 36.375L23.125 22Z" stroke="#E94222" stroke-width="1.5" stroke-linejoin="round"/>
<path d="M27.375 27.3751C28.0654 27.3751 28.625 26.8154 28.625 26.1251C28.625 25.4347 28.0654 24.8751 27.375 24.8751C26.6846 24.8751 26.125 25.4347 26.125 26.1251C26.125 26.8154 26.6846 27.3751 27.375 27.3751Z" fill="#E94222"/>
<path d="M14.375 22.875C15.0654 22.875 15.625 22.3154 15.625 21.625C15.625 20.9347 15.0654 20.375 14.375 20.375C13.6846 20.375 13.125 20.9347 13.125 21.625C13.125 22.3154 13.6846 22.875 14.375 22.875Z" fill="#E94222"/>
<path d="M14.375 14.5C15.0654 14.5 15.625 13.9404 15.625 13.25C15.625 12.5596 15.0654 12 14.375 12C13.6846 12 13.125 12.5596 13.125 13.25C13.125 13.9404 13.6846 14.5 14.375 14.5Z" fill="#E94222"/>
<path d="M23.125 14.5C23.8154 14.5 24.375 13.9404 24.375 13.25C24.375 12.5596 23.8154 12 23.125 12C22.4346 12 21.875 12.5596 21.875 13.25C21.875 13.9404 22.4346 14.5 23.125 14.5Z" fill="#E94222"/>
<path d="M37.5 21.9999C36.625 29.8749 31.625 34.8749 23.25 36.3749" stroke="#E94222" stroke-width="1.5" stroke-linejoin="round"/>
<path d="M33.375 22.7498C32.375 28.3748 28.5 31.7499 22.375 32.3749" stroke="#E94222" stroke-width="1.5" stroke-linejoin="round"/>
</svg>
