<svg width="40" height="40" viewBox="0 0 40 40" fill="none" xmlns="http://www.w3.org/2000/svg">
<g clip-path="url(#clip0_1801_17619)">
<path d="M24.8392 10.9965C26.0459 11.448 27.2953 11.753 28.4523 11.8786C28.4738 11.8809 28.4951 11.882 28.5162 11.882C28.8115 11.882 29.0655 11.6595 29.098 11.3593C29.133 11.0376 28.9005 10.7484 28.5788 10.7135C27.5176 10.5983 26.3664 10.3166 25.2498 9.89884C21.4908 8.49251 19.3991 6.10079 19.8731 4.83384C20.1078 4.20657 20.9751 3.78954 22.2528 3.6897C22.6806 3.65634 23.1372 3.66024 23.6129 3.69782C23.4873 4.06259 23.4321 4.77626 24.326 5.65423C24.8898 6.2079 25.7148 6.7054 26.6492 7.05493C27.4787 7.36524 28.3196 7.5311 29.0497 7.5311C29.1422 7.5311 29.2328 7.52845 29.3215 7.52305C30.3807 7.45899 30.8487 7.03696 31.0552 6.69204C32.3207 7.76774 32.9046 8.87477 32.6309 9.60665C32.4148 10.1839 31.7252 10.4677 31.1848 10.6039C30.871 10.6831 30.6809 11.0016 30.76 11.3154C30.8392 11.6292 31.1579 11.819 31.4714 11.7402C32.6362 11.4464 33.4166 10.8506 33.7284 10.0173C34.1353 8.9297 33.6715 7.63087 32.4222 6.36001C32.0093 5.94001 31.5233 5.53657 30.9806 5.15806C30.8606 4.95165 30.6907 4.73032 30.4534 4.49727C29.8897 3.9436 29.0646 3.4461 28.1302 3.09657C27.1958 2.74696 26.2465 2.58071 25.458 2.62845C25.2724 2.6397 25.1055 2.6622 24.9544 2.69306C23.9657 2.51548 23.0168 2.45446 22.1615 2.52141C20.3849 2.66016 19.1824 3.33563 18.7755 4.42321C18.3687 5.51079 18.8325 6.80962 20.0818 8.08048C21.2209 9.23938 22.9105 10.2749 24.8392 10.9965ZM30.0579 6.07407C29.9622 6.32985 28.7929 6.60579 27.0598 5.95751C25.3266 5.30907 24.6258 4.33345 24.7214 4.07766C24.7733 3.93891 25.1407 3.79431 25.7426 3.79431C26.2508 3.79431 26.926 3.89743 27.7194 4.19423C28.4923 4.48337 29.1894 4.8986 29.6322 5.33345C30.0093 5.70376 30.0934 5.97931 30.0579 6.07407Z" fill="#E94222"/>
<path d="M14.6206 23.3874C14.8199 23.6424 15.1882 23.6874 15.443 23.4882C15.698 23.2889 15.7431 22.9206 15.5437 22.6657C15.202 22.2286 14.6882 21.9779 14.1338 21.9779C13.1473 21.9779 12.3447 22.7805 12.3447 23.767C12.3447 24.0906 12.607 24.3529 12.9307 24.3529C13.2543 24.3529 13.5166 24.0906 13.5166 23.767C13.5166 23.4267 13.7935 23.1498 14.1338 23.1498C14.325 23.1498 14.5025 23.2364 14.6206 23.3874Z" fill="#E94222"/>
<path d="M18.4009 22.5627C18.6558 22.762 19.0241 22.717 19.2234 22.462C19.3414 22.3109 19.5188 22.2243 19.71 22.2243C20.0503 22.2243 20.3272 22.5011 20.3272 22.8414C20.3272 23.165 20.5895 23.4274 20.9131 23.4274C21.2368 23.4274 21.4991 23.165 21.4991 22.8414C21.4991 21.8549 20.6965 21.0524 19.71 21.0524C19.1556 21.0524 18.6417 21.3031 18.3 21.7402C18.1009 21.9952 18.1459 22.3634 18.4009 22.5627Z" fill="#E94222"/>
<path d="M24.6131 24.8857C24.6733 24.9052 24.7343 24.9145 24.7943 24.9145C25.0413 24.9145 25.271 24.7571 25.3514 24.5094C25.4106 24.3272 25.5477 24.1852 25.7274 24.1197C25.8823 24.0633 26.05 24.0707 26.1993 24.1403C26.3487 24.21 26.462 24.3337 26.5185 24.4886C26.6291 24.7926 26.9653 24.9492 27.2695 24.8387C27.5736 24.728 27.7303 24.3916 27.6195 24.0876C27.456 23.6385 27.1274 23.2801 26.6943 23.0782C26.2612 22.8763 25.7754 22.8551 25.3264 23.0187C24.8054 23.2083 24.4082 23.6197 24.2368 24.1474C24.1369 24.4551 24.3053 24.7857 24.6131 24.8857Z" fill="#E94222"/>
<path d="M16.4596 26.7335C16.5199 26.753 16.5809 26.7624 16.641 26.7624C16.8878 26.7624 17.1176 26.605 17.1981 26.3574C17.2574 26.1752 17.3944 26.033 17.5741 25.9676C17.7291 25.9112 17.8967 25.9185 18.0461 25.9881C18.1955 26.0578 18.3088 26.1814 18.3652 26.3364C18.4759 26.6404 18.812 26.7974 19.1162 26.6865C19.4203 26.5758 19.577 26.2396 19.4663 25.9355C19.3028 25.4864 18.9743 25.128 18.5411 24.926C18.1081 24.7242 17.6222 24.703 17.1731 24.8664C16.6522 25.0561 16.2551 25.4674 16.0835 25.9951C15.9835 26.3028 16.1519 26.6335 16.4596 26.7335Z" fill="#E94222"/>
<path d="M38.2422 27.7428H36.3273C37.2273 27.3624 37.7949 26.691 37.7949 25.92C37.7949 25.3559 37.4932 24.8387 36.9595 24.4506C37.3725 23.934 37.6359 23.3332 37.7118 22.7229C37.811 21.925 37.5841 21.2041 37.073 20.693C36.5834 20.2034 35.9034 19.9928 35.1919 20.0447C35.0527 19.7973 34.8459 19.5825 34.5805 19.4132C35.1445 18.3754 35.1379 17.3194 34.5145 16.6961C34.1155 16.2971 33.536 16.1449 32.8845 16.248C32.7098 14.7037 31.6209 13.5106 30.308 13.5106C28.9963 13.5106 27.9083 14.7012 27.732 16.2432C27.0799 16.1398 26.5005 16.2921 26.1013 16.6912C25.6285 17.1641 25.5111 17.8852 25.7274 18.6584C25.3797 18.4597 24.9786 18.3452 24.5524 18.3452C24.1287 18.3452 23.7163 18.4591 23.3559 18.6687C22.9105 18.1537 22.2573 17.845 21.5509 17.845C20.9768 17.845 20.4272 18.0556 20.0001 18.4209C19.573 18.0557 19.0234 17.845 18.4493 17.845C17.7428 17.845 17.0897 18.1537 16.6443 18.6687C16.2838 18.4592 15.8713 18.3452 15.4477 18.3452C14.4499 18.3452 13.5874 18.9686 13.2334 19.8464C13.013 19.7799 12.7823 19.7459 12.5463 19.7459C12.1255 19.7459 11.73 19.8559 11.3863 20.0478C10.8459 19.7158 10.2107 19.5237 9.53125 19.5237C7.57117 19.5237 5.97656 21.1184 5.97656 23.0784C5.97656 23.1648 5.9807 23.2502 5.98695 23.335C4.3382 23.6429 3.08594 25.0917 3.08594 26.8284C3.08594 27.1447 3.12867 27.4509 3.20672 27.7428H1.75781C0.788594 27.7428 0 28.5313 0 29.5006V29.734C0 30.7033 0.788594 31.4918 1.75781 31.4918H4.63344C6.28148 33.966 8.82766 35.9977 11.9634 37.3073C12.2774 37.4384 12.6084 37.5049 12.947 37.5049H22.6562C22.9799 37.5049 23.2422 37.2426 23.2422 36.919C23.2422 36.5954 22.9799 36.333 22.6562 36.333H12.947C12.7641 36.333 12.5852 36.297 12.415 36.2259C9.77492 35.1233 7.58984 33.4815 6.07172 31.4917H33.9283C32.4101 33.4815 30.225 35.1233 27.585 36.2259C27.4148 36.297 27.2359 36.333 27.053 36.333H25.4688C25.1451 36.333 24.8828 36.5954 24.8828 36.919C24.8828 37.2426 25.1451 37.5049 25.4688 37.5049H27.053C27.3916 37.5049 27.7226 37.4384 28.0366 37.3073C31.1724 35.9976 33.7185 33.9659 35.3666 31.4917H38.2422C39.2114 31.4917 40 30.7032 40 29.7339V29.5005C40 28.5313 39.2114 27.7428 38.2422 27.7428ZM36.2442 21.5216C36.4942 21.7716 36.6024 22.1469 36.5488 22.5784C36.4884 23.0642 36.2365 23.5503 35.8395 23.9473C35.7739 24.0129 35.7016 24.0778 35.6245 24.1402C35.4614 24.2721 35.3814 24.4811 35.4145 24.6882C35.4476 24.8952 35.5888 25.0689 35.7848 25.1434C36.294 25.3371 36.623 25.6419 36.623 25.92C36.623 26.2857 36.0227 26.7543 35.053 26.8737C34.8581 26.8977 34.6882 27.0177 34.6004 27.1933C34.5134 27.3675 34.5188 27.5734 34.6144 27.7428H33.522C33.535 27.642 33.5423 27.5396 33.5423 27.4355C33.5423 26.7783 33.2748 26.1829 32.8437 25.7509L34.7509 23.8436C34.9798 23.6148 34.9798 23.2437 34.7509 23.015C34.5221 22.7862 34.1512 22.7861 33.9223 23.015L32.0078 24.9294C32.0295 24.7998 32.0417 24.668 32.0417 24.534C32.0417 23.6847 31.5956 22.938 30.9256 22.5148C31.0795 21.6602 31.5085 21.1394 31.8494 21.1394C32.1273 21.1394 32.4321 21.4683 32.6258 21.9773C32.7003 22.173 32.8737 22.3142 33.0805 22.3473C33.2877 22.3804 33.4962 22.3008 33.6284 22.1381C33.6901 22.062 33.7541 21.9907 33.8187 21.9262C34.5857 21.1592 35.6964 20.9739 36.2442 21.5216ZM26.9298 17.5199C27.0211 17.4287 27.1664 17.3834 27.3457 17.3834C27.5527 17.3834 27.8051 17.4437 28.0714 17.5633C28.2624 17.6491 28.4851 17.6262 28.6548 17.5034C28.8245 17.3806 28.9158 17.1765 28.8941 16.968C28.8839 16.8708 28.8788 16.7751 28.8788 16.6836C28.8788 15.5988 29.5332 14.6824 30.3078 14.6824C31.0824 14.6824 31.7369 15.5988 31.7369 16.6836C31.7369 16.7768 31.7316 16.8739 31.7213 16.972C31.6991 17.1806 31.7902 17.3851 31.9601 17.5081C32.1299 17.6312 32.3526 17.6541 32.544 17.5683C33.0408 17.3452 33.4892 17.3279 33.6858 17.5246C33.9445 17.7832 33.8513 18.539 33.25 19.3091C33.1291 19.4637 33.0938 19.6687 33.156 19.8551C33.2181 20.0413 33.3694 20.1841 33.5589 20.2353C33.7118 20.2766 33.8437 20.3329 33.9487 20.3994C33.7313 20.5096 33.5198 20.6442 33.3192 20.8037C32.9311 20.2694 32.4138 19.9674 31.8495 19.9674C31.5052 19.9674 31.1813 20.0817 30.8939 20.2869V17.3801C30.8939 17.0565 30.6316 16.7941 30.308 16.7941C29.9843 16.7941 29.722 17.0565 29.722 17.3801V21.3908C29.4125 20.4469 28.5295 19.7615 27.4868 19.7471C27.5077 19.592 27.467 19.4333 27.3686 19.3077C26.7646 18.5364 26.6707 17.7791 26.9298 17.5199ZM9.53125 20.6956C9.87672 20.6956 10.2051 20.7698 10.5016 20.9028C10.2846 21.2623 10.1595 21.6832 10.1595 22.1328C10.1595 22.14 10.1595 22.1472 10.1595 22.1543C9.25125 22.2244 8.48445 22.8055 8.14531 23.6094C7.83813 23.4652 7.50734 23.3634 7.16016 23.3122C7.15258 23.2353 7.14844 23.1573 7.14844 23.0784C7.14844 21.7645 8.21742 20.6956 9.53125 20.6956ZM4.25781 26.8284C4.25781 25.5145 5.3268 24.4456 6.64062 24.4456C7.13711 24.4456 7.59844 24.5984 7.98039 24.8594C7.99547 24.9699 8.01797 25.0787 8.0482 25.1852C7.12242 25.5137 6.45766 26.3984 6.45766 27.4355C6.45766 27.5396 6.465 27.642 6.47805 27.7428H4.4407C4.32305 27.4611 4.25781 27.1523 4.25781 26.8284ZM38.8281 29.734C38.8281 30.0571 38.5653 30.3199 38.2422 30.3199H1.75781C1.43469 30.3199 1.17188 30.0571 1.17188 29.734V29.5006C1.17188 29.1775 1.43469 28.9147 1.75781 28.9147H11.5625C11.8862 28.9147 12.1484 28.6523 12.1484 28.3287C12.1484 28.0052 11.8862 27.7428 11.5625 27.7428H7.67039C7.64469 27.6443 7.62945 27.5417 7.62945 27.4355C7.62945 26.7655 8.17453 26.2205 8.8393 26.2204L8.85508 26.2214C8.86977 26.2224 8.88437 26.2234 8.89914 26.224C9.12805 26.2349 9.3407 26.1103 9.44555 25.9073C9.55031 25.7043 9.5275 25.4588 9.38711 25.2786C9.21898 25.0627 9.13008 24.8053 9.13008 24.5341C9.13008 23.8641 9.67516 23.3191 10.3451 23.3191C10.4681 23.3191 10.5896 23.3373 10.7059 23.3734C10.9227 23.4407 11.1584 23.3767 11.3116 23.2095C11.4648 23.0423 11.5077 22.8018 11.4218 22.5919C11.3616 22.445 11.3312 22.2905 11.3312 22.1328C11.3312 21.4629 11.8763 20.9178 12.5462 20.9178C12.8165 20.9178 13.0733 21.0062 13.2887 21.1734C13.4645 21.3097 13.7023 21.3347 13.9025 21.238C14.1027 21.1414 14.231 20.9397 14.2337 20.7173C14.2417 20.0555 14.7862 19.5172 15.4476 19.5172C15.7912 19.5172 16.1209 19.6654 16.352 19.924C16.486 20.0737 16.6877 20.1444 16.8853 20.1112C17.0834 20.0782 17.2508 19.9459 17.3288 19.7608C17.5192 19.3089 17.9589 19.0169 18.4491 19.0169C18.8825 19.0169 19.2736 19.2413 19.4952 19.6172C19.6005 19.7959 19.7925 19.9055 19.9999 19.9055C20.2073 19.9055 20.3993 19.7959 20.5047 19.6172C20.7262 19.2413 21.1173 19.0169 21.5507 19.0169C22.0409 19.0169 22.4806 19.3089 22.671 19.7608C22.7491 19.9459 22.9164 20.0782 23.1145 20.1112C23.3123 20.1442 23.5138 20.0737 23.6478 19.924C23.879 19.6655 24.2087 19.5172 24.5523 19.5172C25.2137 19.5172 25.7582 20.0556 25.7662 20.7173C25.7688 20.9397 25.8971 21.1414 26.0973 21.238C26.2976 21.3347 26.5353 21.3096 26.7111 21.1734C26.9266 21.0062 27.1834 20.9178 27.4536 20.9178C28.1235 20.9178 28.6686 21.4629 28.6686 22.1328C28.6686 22.2905 28.6381 22.445 28.578 22.5919C28.4922 22.8018 28.5351 23.0423 28.6883 23.2095C28.8414 23.3767 29.0771 23.4406 29.2939 23.3734C29.4102 23.3373 29.5317 23.3191 29.6548 23.3191C30.3247 23.3191 30.8698 23.8641 30.8698 24.5341C30.8698 24.8053 30.7809 25.0628 30.6127 25.2786C30.4723 25.4588 30.4495 25.7043 30.5543 25.9073C30.6591 26.1104 30.8724 26.2344 31.1007 26.224C31.1155 26.2234 31.1302 26.2223 31.1448 26.2214L31.1555 26.2205C31.8254 26.2205 32.3705 26.7655 32.3705 27.4355C32.3705 27.5417 32.3553 27.6444 32.3295 27.7428H14.2969C13.9732 27.7428 13.7109 28.0052 13.7109 28.3287C13.7109 28.6523 13.9732 28.9147 14.2969 28.9147H38.2422C38.5653 28.9147 38.8281 29.1775 38.8281 29.5006V29.734Z" fill="#E94222"/>
<path d="M8.50732 12.0443C8.21427 12.0737 7.95295 12.2314 7.79045 12.4769C7.0249 13.6327 7.18162 15.1839 8.1631 16.1654C8.72795 16.7303 9.4813 17.0219 10.2397 17.0219C10.799 17.0219 11.3611 16.8631 11.8519 16.5381C12.0973 16.3754 12.255 16.1141 12.2844 15.8211C12.3139 15.5281 12.2114 15.2407 12.0033 15.0325L9.29591 12.3252C9.08771 12.1173 8.80005 12.0144 8.50732 12.0443ZM8.99177 15.3368C8.4606 14.8057 8.3317 13.9968 8.6481 13.3348L10.9939 15.6806C10.3319 15.9969 9.52295 15.868 8.99177 15.3368Z" fill="#E94222"/>
<path d="M13.1556 11.7251C13.2409 11.7251 13.3272 11.7138 13.4128 11.6909L16.2282 10.9366C16.713 10.8066 17.0194 10.3381 16.9409 9.84665C16.825 9.12047 16.4883 8.46126 15.9673 7.94032C15.4463 7.41938 14.7872 7.08266 14.061 6.96672C13.5699 6.88837 13.1009 7.19477 12.9712 7.67954L12.2168 10.495C12.1254 10.836 12.2199 11.1886 12.4695 11.4383C12.6565 11.6252 12.9012 11.7251 13.1556 11.7251ZM14.0556 8.15985C14.4654 8.25876 14.8369 8.46719 15.1387 8.76899C15.4404 9.07071 15.6487 9.44227 15.7478 9.85212L13.4362 10.4715L14.0556 8.15985Z" fill="#E94222"/>
<path d="M5.41247 7.49909L8.22787 8.25339C8.31349 8.27636 8.39982 8.28761 8.48513 8.28761C8.73943 8.28761 8.98419 8.18768 9.17115 8.00073C9.42076 7.75112 9.51529 7.39846 9.42388 7.05745L8.66951 4.24198C8.53974 3.75714 8.07115 3.45104 7.57958 3.52917C6.85341 3.64511 6.19427 3.98182 5.67341 4.50268C5.1524 5.02362 4.81568 5.68284 4.69974 6.40901C4.62122 6.90057 4.92763 7.36917 5.41247 7.49909ZM6.50208 5.33143C6.80372 5.02971 7.17536 4.82128 7.58505 4.72237L8.20451 7.03393L5.89287 6.41456C5.99177 6.00472 6.20021 5.63323 6.50208 5.33143Z" fill="#E94222"/>
</g>
<defs>
<clipPath id="clip0_1801_17619">
<rect width="40" height="40" fill="white"/>
</clipPath>
</defs>
</svg>
