<svg width="32" height="32" viewBox="0 0 32 32" fill="none" xmlns="http://www.w3.org/2000/svg">
<g clip-path="url(#clip0_1015_22723)">
<circle cx="16" cy="16" r="16" fill="#F9C200"/>
<mask id="path-2-inside-1_1015_22723" fill="white">
<path d="M16 29C18.6652 29 21.3304 26.8953 23.0607 25.179C23.4599 24.7831 22.9792 24.2122 22.4822 24.4749C20.6013 25.469 18.0181 26.6 16 26.6C13.9819 26.6 11.3987 25.469 9.5178 24.4749C9.02076 24.2122 8.54012 24.7831 8.93926 25.179C10.6696 26.8953 13.3348 29 16 29Z"/>
</mask>
<path d="M23.0607 25.179L25.1734 27.3089L25.1734 27.3089L23.0607 25.179ZM8.93926 25.179L6.82658 27.3089L6.82658 27.3089L8.93926 25.179ZM9.5178 24.4749L10.9197 21.8226L10.9197 21.8226L9.5178 24.4749ZM22.4822 24.4749L21.0803 21.8226L21.0803 21.8226L22.4822 24.4749ZM20.948 23.0491C20.1783 23.8126 19.2652 24.5953 18.3201 25.1712C17.3491 25.7627 16.5672 26 16 26V32C18.098 32 19.9813 31.1849 21.4419 30.2951C22.9282 29.3895 24.2129 28.2616 25.1734 27.3089L20.948 23.0491ZM16 26C15.4328 26 14.6509 25.7627 13.6799 25.1712C12.7348 24.5953 11.8217 23.8126 11.052 23.0491L6.82658 27.3089C7.78708 28.2616 9.07177 29.3895 10.5581 30.2951C12.0187 31.1849 13.902 32 16 32V26ZM8.11593 27.1272C9.1314 27.6639 10.3827 28.2629 11.6934 28.7336C12.967 29.1911 14.4921 29.6 16 29.6V23.6C15.4899 23.6 14.7143 23.4434 13.7216 23.0868C12.7658 22.7436 11.7851 22.28 10.9197 21.8226L8.11593 27.1272ZM16 29.6C17.5079 29.6 19.033 29.1911 20.3066 28.7336C21.6173 28.2629 22.8686 27.6639 23.8841 27.1272L21.0803 21.8226C20.2149 22.28 19.2342 22.7436 18.2784 23.0868C17.2857 23.4434 16.5101 23.6 16 23.6V29.6ZM25.1734 27.3089C25.7674 26.7197 26.1776 25.8995 26.2071 24.9593C26.2356 24.0551 25.905 23.2526 25.4152 22.663C24.4114 21.4547 22.6321 21.0024 21.0803 21.8226L23.8841 27.1272C22.8293 27.6847 21.5389 27.3865 20.7999 26.4969C20.4425 26.0667 20.1883 25.4648 20.2101 24.7708C20.2331 24.0407 20.5536 23.4403 20.948 23.0491L25.1734 27.3089ZM11.052 23.0491C11.4464 23.4403 11.7669 24.0407 11.7899 24.7708C11.8117 25.4648 11.5575 26.0667 11.2001 26.4969C10.4611 27.3865 9.17068 27.6847 8.11593 27.1272L10.9197 21.8226C9.36787 21.0024 7.5886 21.4547 6.58483 22.663C6.09504 23.2526 5.76443 24.0551 5.79286 24.9593C5.82241 25.8995 6.23259 26.7197 6.82658 27.3089L11.052 23.0491Z" fill="white" mask="url(#path-2-inside-1_1015_22723)"/>
<path d="M21.7117 9.31596C21.3918 8.99386 21.3918 8.47753 21.7117 8.15543L23.4302 6.02654L23.4302 5.98958C23.8655 5.55888 24.5713 5.55888 25.0067 5.98958C25.442 6.42028 25.442 7.11858 25.0067 7.54928L22.9819 9.31596L22.9063 9.38301C22.7482 9.50789 22.5511 9.57686 22.3468 9.57686C22.1085 9.57686 21.88 9.48298 21.7117 9.31596ZM8.6665 15.1852C8.6665 13.2894 9.4277 11.4713 10.7826 10.1308C12.1376 8.79025 13.9753 8.03715 15.8914 8.03715C19.8817 8.03715 23.1164 11.2374 23.1164 15.1852C23.1164 19.1329 19.8817 22.3332 15.8914 22.3332C11.9012 22.3332 8.6665 19.1329 8.6665 15.1852Z" fill="white"/>
</g>
<defs>
<clipPath id="clip0_1015_22723">
<rect width="32" height="32" fill="white"/>
</clipPath>
</defs>
</svg>
